<svg xmlns="http://www.w3.org/2000/svg" width="1920" height="900" viewBox="0 0 1920 900" fill="none">
  <defs>
    <linearGradient id="bg" x1="0" y1="0" x2="1920" y2="900" gradientUnits="userSpaceOnUse">
      <stop offset="0" stop-color="#011039"/>
      <stop offset="0.55" stop-color="#011039"/>
      <stop offset="1" stop-color="#E76800"/>
    </linearGradient>
    <linearGradient id="glow" x1="0" y1="0" x2="0" y2="1">
      <stop offset="0" stop-color="#FFFFFF" stop-opacity="0.18"/>
      <stop offset="1" stop-color="#FFFFFF" stop-opacity="0"/>
    </linearGradient>
    <filter id="soft" x="-30%" y="-30%" width="160%" height="160%" color-interpolation-filters="sRGB">
      <feGaussianBlur stdDeviation="22"/>
    </filter>
  </defs>

  <rect width="1920" height="900" fill="url(#bg)"/>

  <circle cx="1460" cy="250" r="230" fill="#E76800" fill-opacity="0.25" filter="url(#soft)"/>
  <circle cx="620" cy="560" r="280" fill="#FFFFFF" fill-opacity="0.10" filter="url(#soft)"/>

  <path d="M0 720C220 650 410 650 640 720C870 790 1030 790 1260 720C1490 650 1680 640 1920 700V900H0V720Z" fill="#FFFFFF" fill-opacity="0.10"/>
  <path d="M0 770C260 710 450 710 680 770C910 830 1080 830 1310 770C1540 710 1720 700 1920 740V900H0V770Z" fill="#E76800" fill-opacity="0.12"/>

  <rect x="180" y="150" width="1560" height="520" rx="28" fill="url(#glow)" fill-opacity="1"/>
</svg>
